M48
; DRILL file KiCad 10.0.3 date 2026-09-06T23:52:26
; FORMAT={-:-/ absolute / metric / decimal}
; #@! TF.CreationDate,2026-09-06T23:52:26+05:30
; #@! TF.GenerationSoftware,Kicad,Pcbnew,10.0.3
; #@! TF.FileFunction,MixedPlating,1,2
FMAT,2
METRIC
; #@! TA.AperFunction,Plated,PTH,ComponentDrill
T1C0.800
; #@! TA.AperFunction,Plated,PTH,ComponentDrill
T2C1.000
; #@! TA.AperFunction,Plated,PTH,ComponentDrill
T3C1.300
; #@! TA.AperFunction,Plated,PTH,ComponentDrill
T4C2.200
; #@! TA.AperFunction,Plated,PTH,ComponentDrill
T5C3.200
%
G90
G05
T1
X112.0Y-82.92
X112.0Y-93.08
X112.0Y-95.92
X112.0Y-106.08
X112.0Y-108.92
X112.0Y-119.08
X114.025Y-63.75
X114.025Y-73.91
X128.5Y-71.3
X128.5Y-81.46
X132.237Y-61.777
X132.262Y-64.317
X132.364Y-72.699
X132.364Y-75.239
X151.16Y-61.777
X151.16Y-72.572
X151.16Y-75.112
X151.185Y-64.317
X159.92Y-133.0
X160.92Y-130.0
X170.08Y-133.0
X171.08Y-130.0
X175.75Y-62.67
X175.75Y-72.83
X185.0Y-68.92
X185.0Y-79.08
X185.0Y-81.92
X185.0Y-92.08
X185.0Y-94.92
X185.0Y-105.08
T2
X102.0Y-95.38
X102.0Y-97.92
X102.0Y-100.46
X102.0Y-103.0
X102.0Y-105.54
X102.0Y-108.08
X102.0Y-110.62
X125.0Y-137.0
X127.54Y-137.0
X133.46Y-137.0
X136.0Y-137.0
X138.38Y-81.87
X138.38Y-84.41
X138.38Y-86.95
X138.38Y-89.49
X138.38Y-92.03
X138.38Y-94.57
X138.38Y-97.11
X138.38Y-99.65
X138.38Y-102.19
X138.38Y-104.73
X138.38Y-107.27
X138.38Y-109.81
X138.38Y-112.35
X138.38Y-114.89
X138.38Y-117.43
X138.38Y-119.97
X138.38Y-122.51
X138.38Y-125.05
X138.38Y-127.59
X138.38Y-130.13
X138.54Y-137.0
X147.0Y-137.0
X149.54Y-137.0
X153.62Y-81.87
X153.62Y-84.41
X153.62Y-86.95
X153.62Y-89.49
X153.62Y-92.03
X153.62Y-94.57
X153.62Y-97.11
X153.62Y-99.65
X153.62Y-102.19
X153.62Y-104.73
X153.62Y-107.27
X153.62Y-109.81
X153.62Y-112.35
X153.62Y-114.89
X153.62Y-117.43
X153.62Y-119.97
X153.62Y-122.51
X153.62Y-125.05
X153.62Y-127.59
X153.62Y-130.13
X157.0Y-137.0
X159.54Y-137.0
X162.08Y-137.0
X164.62Y-137.0
X167.16Y-137.0
X169.7Y-137.0
X172.24Y-137.0
X178.19Y-137.0
X180.73Y-137.0
X183.27Y-137.0
X185.81Y-137.0
X196.0Y-94.76
X196.0Y-97.3
X196.0Y-99.84
X196.0Y-102.38
X196.0Y-104.92
X196.0Y-107.46
X196.0Y-110.0
X196.0Y-115.38
X196.0Y-117.92
X196.0Y-120.46
X196.0Y-123.0
X196.0Y-125.54
X196.0Y-128.08
X196.0Y-130.62
T3
X103.0Y-65.0
X108.08Y-65.0
T4
X171.0Y-109.0
X171.0Y-126.0
T5
X96.0Y-63.0
X96.0Y-141.0
X199.0Y-63.0
X199.0Y-141.0
T2
G00X122.0Y-68.0
M15
G01X120.0Y-68.0
M16
G05
G00X122.0Y-74.0
M15
G01X120.0Y-74.0
M16
G05
G00X125.7Y-70.0
M15
G01X125.7Y-72.0
M16
G05
M30
