%TF.GenerationSoftware,KiCad,Pcbnew,10.0.3*%
%TF.CreationDate,2026-09-06T23:51:25+05:30*%
%TF.ProjectId,stm32-falling-sticks,73746d33-322d-4666-916c-6c696e672d73,rev?*%
%TF.SameCoordinates,Original*%
%TF.FileFunction,Copper,L2,Bot*%
%TF.FilePolarity,Positive*%
%FSLAX46Y46*%
G04 Gerber Fmt 4.6, Leading zero omitted, Abs format (unit mm)*
G04 Created by KiCad (PCBNEW 10.0.3) date 2026-09-06 23:51:25*
%MOMM*%
%LPD*%
G01*
G04 APERTURE LIST*
G04 Aperture macros list*
%AMRoundRect*
0 Rectangle with rounded corners*
0 $1 Rounding radius*
0 $2 $3 $4 $5 $6 $7 $8 $9 X,Y pos of 4 corners*
0 Add a 4 corners polygon primitive as box body*
4,1,4,$2,$3,$4,$5,$6,$7,$8,$9,$2,$3,0*
0 Add four circle primitives for the rounded corners*
1,1,$1+$1,$2,$3*
1,1,$1+$1,$4,$5*
1,1,$1+$1,$6,$7*
1,1,$1+$1,$8,$9*
0 Add four rect primitives between the rounded corners*
20,1,$1+$1,$2,$3,$4,$5,0*
20,1,$1+$1,$4,$5,$6,$7,0*
20,1,$1+$1,$6,$7,$8,$9,0*
20,1,$1+$1,$8,$9,$2,$3,0*%
G04 Aperture macros list end*
%TA.AperFunction,ComponentPad*%
%ADD10C,3.800000*%
%TD*%
%TA.AperFunction,ComponentPad*%
%ADD11C,5.600000*%
%TD*%
%TA.AperFunction,ComponentPad*%
%ADD12C,1.600000*%
%TD*%
%TA.AperFunction,ComponentPad*%
%ADD13RoundRect,0.250000X-1.050000X-1.050000X1.050000X-1.050000X1.050000X1.050000X-1.050000X1.050000X0*%
%TD*%
%TA.AperFunction,ComponentPad*%
%ADD14C,2.600000*%
%TD*%
%TA.AperFunction,ComponentPad*%
%ADD15R,1.700000X1.700000*%
%TD*%
%TA.AperFunction,ComponentPad*%
%ADD16C,1.700000*%
%TD*%
%TA.AperFunction,ComponentPad*%
%ADD17R,3.500000X3.500000*%
%TD*%
%TA.AperFunction,ComponentPad*%
%ADD18RoundRect,0.750000X-1.000000X0.750000X-1.000000X-0.750000X1.000000X-0.750000X1.000000X0.750000X0*%
%TD*%
%TA.AperFunction,ComponentPad*%
%ADD19RoundRect,0.875000X-0.875000X0.875000X-0.875000X-0.875000X0.875000X-0.875000X0.875000X0.875000X0*%
%TD*%
%TA.AperFunction,ComponentPad*%
%ADD20R,1.600000X1.600000*%
%TD*%
%TA.AperFunction,ComponentPad*%
%ADD21O,1.600000X1.600000*%
%TD*%
G04 APERTURE END LIST*
D10*
%TO.P,H5,1,1_1*%
%TO.N,GND*%
X171000000Y-109000000D03*
%TD*%
D11*
%TO.P,H1,1,1_1*%
%TO.N,GND*%
X199000000Y-63000000D03*
%TD*%
D10*
%TO.P,H6,1,1_1*%
%TO.N,GND*%
X171000000Y-126000000D03*
%TD*%
D11*
%TO.P,H4,1,1_1*%
%TO.N,GND*%
X96000000Y-141000000D03*
%TD*%
%TO.P,H3,1,1_1*%
%TO.N,GND*%
X199000000Y-141000000D03*
%TD*%
%TO.P,H2,1,1_1*%
%TO.N,GND*%
X96000000Y-63000000D03*
%TD*%
D12*
%TO.P,R32,1*%
%TO.N,GND*%
X175750000Y-62670000D03*
%TO.P,R32,2*%
X175750000Y-72830000D03*
%TD*%
%TO.P,R27,1*%
%TO.N,+5V*%
X112000000Y-82920000D03*
%TO.P,R27,2*%
%TO.N,Net-(D7-K)*%
X112000000Y-93080000D03*
%TD*%
%TO.P,R31,1*%
%TO.N,/LCD_SDA*%
X159920000Y-133000000D03*
%TO.P,R31,2*%
%TO.N,Net-(J3-Pin_1)*%
X170080000Y-133000000D03*
%TD*%
D13*
%TO.P,J9,1,Pin_1_1*%
%TO.N,+12V*%
X103000000Y-65000000D03*
D14*
%TO.P,J9,2,Pin_2_2*%
%TO.N,GND*%
X108080000Y-65000000D03*
%TD*%
D15*
%TO.P,J4,1,Pin_1_1*%
%TO.N,/MAG_10*%
X102000000Y-110620000D03*
D16*
%TO.P,J4,2,Pin_2_2*%
%TO.N,/MAG_09*%
X102000000Y-108080000D03*
%TO.P,J4,3,Pin_3_3*%
%TO.N,/MAG_08*%
X102000000Y-105540000D03*
%TO.P,J4,4,Pin_4_4*%
%TO.N,/MAG_07*%
X102000000Y-103000000D03*
%TO.P,J4,5,Pin_5_5*%
%TO.N,/MAG_06*%
X102000000Y-100460000D03*
%TO.P,J4,6,Pin_6_6*%
%TO.N,+5V*%
X102000000Y-97920000D03*
%TO.P,J4,7,Pin_7_7*%
X102000000Y-95380000D03*
%TD*%
D12*
%TO.P,R28,1*%
%TO.N,Net-(D7-K)*%
X112000000Y-95920000D03*
%TO.P,R28,2*%
%TO.N,Net-(D8-K)*%
X112000000Y-106080000D03*
%TD*%
D15*
%TO.P,J11,1,Pin_1_1*%
%TO.N,/BUZ_OUT*%
X125000000Y-137000000D03*
D16*
%TO.P,J11,2,Pin_2_2*%
%TO.N,GND*%
X127540000Y-137000000D03*
%TD*%
D15*
%TO.P,U1,1,PB12_1*%
%TO.N,Net-(U1-PB12)*%
X153620000Y-81870000D03*
D16*
%TO.P,U1,2,PB13_2*%
%TO.N,Net-(U1-PB13)*%
X153620000Y-84410000D03*
%TO.P,U1,3,PB14_3*%
%TO.N,Net-(U1-PB14)*%
X153620000Y-86950000D03*
%TO.P,U1,4,PB15_4*%
%TO.N,Net-(U1-PB15)*%
X153620000Y-89490000D03*
%TO.P,U1,5,PA8_5*%
%TO.N,Net-(U1-PA8)*%
X153620000Y-92030000D03*
%TO.P,U1,6,PA9_6*%
%TO.N,/HAL_01*%
X153620000Y-94570000D03*
%TO.P,U1,7,PA10_7*%
%TO.N,/HAL_02*%
X153620000Y-97110000D03*
%TO.P,U1,8,PA11_8*%
%TO.N,/HAL_03*%
X153620000Y-99650000D03*
%TO.P,U1,9,PA12_9*%
%TO.N,/HAL_04*%
X153620000Y-102190000D03*
%TO.P,U1,10,PA15_10*%
%TO.N,/HAL_05*%
X153620000Y-104730000D03*
%TO.P,U1,11,PB3_11*%
%TO.N,/HAL_06*%
X153620000Y-107270000D03*
%TO.P,U1,12,PB4_12*%
%TO.N,/HAL_07*%
X153620000Y-109810000D03*
%TO.P,U1,13,PB5_13*%
%TO.N,/HAL_08*%
X153620000Y-112350000D03*
%TO.P,U1,14,PB6_14*%
%TO.N,/LCD_SCL*%
X153620000Y-114890000D03*
%TO.P,U1,15,PB7_15*%
%TO.N,/LCD_SDA*%
X153620000Y-117430000D03*
%TO.P,U1,16,PB8_16*%
%TO.N,/HAL_09*%
X153620000Y-119970000D03*
%TO.P,U1,17,PB9_17*%
%TO.N,/HAL_10*%
X153620000Y-122510000D03*
%TO.P,U1,18,5V_18*%
%TO.N,+5V*%
X153620000Y-125050000D03*
%TO.P,U1,19,GND_19*%
%TO.N,GND*%
X153620000Y-127590000D03*
%TO.P,U1,20,3V3_20*%
%TO.N,+3V3*%
X153620000Y-130130000D03*
%TO.P,U1,21,VBat_21*%
%TO.N,unconnected-(U1-VBat-Pad21)*%
X138380000Y-130130000D03*
%TO.P,U1,22,PC13_22*%
%TO.N,unconnected-(U1-PC13-Pad22)*%
X138380000Y-127590000D03*
%TO.P,U1,23,PC14_23*%
%TO.N,unconnected-(U1-PC14-Pad23)*%
X138380000Y-125050000D03*
%TO.P,U1,24,PC15_24*%
%TO.N,unconnected-(U1-PC15-Pad24)*%
X138380000Y-122510000D03*
%TO.P,U1,25,PA0_25*%
%TO.N,/POT_IN*%
X138380000Y-119970000D03*
%TO.P,U1,26,PA1_26*%
%TO.N,/START_IN*%
X138380000Y-117430000D03*
%TO.P,U1,27,PA2_27*%
%TO.N,Net-(U1-PA2)*%
X138380000Y-114890000D03*
%TO.P,U1,28,PA3_28*%
%TO.N,unconnected-(U1-PA3-Pad28)*%
X138380000Y-112350000D03*
%TO.P,U1,29,PA4_29*%
%TO.N,unconnected-(U1-PA4-Pad29)*%
X138380000Y-109810000D03*
%TO.P,U1,30,PA5_30*%
%TO.N,unconnected-(U1-PA5-Pad30)*%
X138380000Y-107270000D03*
%TO.P,U1,31,PA6_31*%
%TO.N,unconnected-(U1-PA6-Pad31)*%
X138380000Y-104730000D03*
%TO.P,U1,32,PA7_32*%
%TO.N,Net-(U1-PA7)*%
X138380000Y-102190000D03*
%TO.P,U1,33,PB0_33*%
%TO.N,Net-(U1-PB0)*%
X138380000Y-99650000D03*
%TO.P,U1,34,PB1_34*%
%TO.N,Net-(U1-PB1)*%
X138380000Y-97110000D03*
%TO.P,U1,35,PB10_35*%
%TO.N,Net-(U1-PB10)*%
X138380000Y-94570000D03*
%TO.P,U1,36,PB11_36*%
%TO.N,Net-(U1-PB11)*%
X138380000Y-92030000D03*
%TO.P,U1,37,RST_37*%
%TO.N,unconnected-(U1-RST-Pad37)*%
X138380000Y-89490000D03*
%TO.P,U1,38,3V3_38*%
%TO.N,unconnected-(U1-3V3-Pad38)*%
X138380000Y-86950000D03*
%TO.P,U1,39,GND_39*%
%TO.N,GND*%
X138380000Y-84410000D03*
%TO.P,U1,40,GND_40*%
X138380000Y-81870000D03*
%TD*%
D17*
%TO.P,J10,1*%
%TO.N,GND*%
X121000000Y-74000000D03*
D18*
%TO.P,J10,2*%
%TO.N,+12V*%
X121000000Y-68000000D03*
D19*
%TO.P,J10,3*%
%TO.N,N/C*%
X125700000Y-71000000D03*
%TD*%
D15*
%TO.P,J7,1,Pin_1_1*%
%TO.N,/POT_IN*%
X133460000Y-137000000D03*
D16*
%TO.P,J7,2,Pin_2_2*%
%TO.N,GND*%
X136000000Y-137000000D03*
%TO.P,J7,3,Pin_3_3*%
%TO.N,+3V3*%
X138540000Y-137000000D03*
%TD*%
D15*
%TO.P,J6,1,Pin_1_1*%
%TO.N,/START_IN*%
X147000000Y-137000000D03*
D16*
%TO.P,J6,2,Pin_2_2*%
%TO.N,GND*%
X149540000Y-137000000D03*
%TD*%
D12*
%TO.P,R33,1*%
%TO.N,GND*%
X114025000Y-73910000D03*
%TO.P,R33,2*%
X114025000Y-63750000D03*
%TD*%
%TO.P,R5,1*%
%TO.N,/LCD_SCL*%
X160920000Y-130000000D03*
%TO.P,R5,2*%
%TO.N,Net-(J3-Pin_2)*%
X171080000Y-130000000D03*
%TD*%
D15*
%TO.P,J1,1,Pin_1_1*%
%TO.N,/MAG_05*%
X196000000Y-110000000D03*
D16*
%TO.P,J1,2,Pin_2_2*%
%TO.N,/MAG_04*%
X196000000Y-107460000D03*
%TO.P,J1,3,Pin_3_3*%
%TO.N,/MAG_03*%
X196000000Y-104920000D03*
%TO.P,J1,4,Pin_4_4*%
%TO.N,/MAG_02*%
X196000000Y-102380000D03*
%TO.P,J1,5,Pin_5_5*%
%TO.N,/MAG_01*%
X196000000Y-99840000D03*
%TO.P,J1,6,Pin_6_6*%
%TO.N,+5V*%
X196000000Y-97300000D03*
%TO.P,J1,7,Pin_7_7*%
X196000000Y-94760000D03*
%TD*%
D12*
%TO.P,R3,1*%
%TO.N,Net-(D2-K)*%
X185000000Y-81920000D03*
%TO.P,R3,2*%
%TO.N,Net-(D3-K)*%
X185000000Y-92080000D03*
%TD*%
D20*
%TO.P,J8,1,Pin_1_1*%
%TO.N,+12V*%
X151160000Y-75112000D03*
X151160000Y-72572000D03*
D21*
%TO.P,J8,2,Pin_2_2*%
%TO.N,GND*%
X151185400Y-64317000D03*
X151160000Y-61777000D03*
D20*
%TO.P,J8,3,Pin_3_3*%
%TO.N,+5V*%
X132364000Y-75239000D03*
X132364000Y-72699000D03*
D21*
%TO.P,J8,4,Pin_4_4*%
%TO.N,GND*%
X132262400Y-64317000D03*
X132237000Y-61777000D03*
%TD*%
D15*
%TO.P,J3,1,Pin_1_1*%
%TO.N,Net-(J3-Pin_1)*%
X178190000Y-137000000D03*
D16*
%TO.P,J3,2,Pin_2_2*%
%TO.N,Net-(J3-Pin_2)*%
X180730000Y-137000000D03*
%TO.P,J3,3,Pin_3_3*%
%TO.N,GND*%
X183270000Y-137000000D03*
%TO.P,J3,4,Pin_4_4*%
%TO.N,+5V*%
X185810000Y-137000000D03*
%TD*%
D15*
%TO.P,J2,1,Pin_1_1*%
%TO.N,/HAL_05*%
X196000000Y-130620000D03*
D16*
%TO.P,J2,2,Pin_2_2*%
%TO.N,/HAL_04*%
X196000000Y-128080000D03*
%TO.P,J2,3,Pin_3_3*%
%TO.N,/HAL_03*%
X196000000Y-125540000D03*
%TO.P,J2,4,Pin_4_4*%
%TO.N,/HAL_02*%
X196000000Y-123000000D03*
%TO.P,J2,5,Pin_5_5*%
%TO.N,/HAL_01*%
X196000000Y-120460000D03*
%TO.P,J2,6,Pin_6_6*%
%TO.N,GND*%
X196000000Y-117920000D03*
%TO.P,J2,7,Pin_7_7*%
%TO.N,+5V*%
X196000000Y-115380000D03*
%TD*%
D12*
%TO.P,R4,1*%
%TO.N,Net-(D3-K)*%
X185000000Y-94920000D03*
%TO.P,R4,2*%
%TO.N,Net-(D4-K)*%
X185000000Y-105080000D03*
%TD*%
D15*
%TO.P,J5,1,Pin_1_1*%
%TO.N,/HAL_10*%
X157000000Y-137000000D03*
D16*
%TO.P,J5,2,Pin_2_2*%
%TO.N,/HAL_09*%
X159540000Y-137000000D03*
%TO.P,J5,3,Pin_3_3*%
%TO.N,/HAL_08*%
X162080000Y-137000000D03*
%TO.P,J5,4,Pin_4_4*%
%TO.N,/HAL_07*%
X164620000Y-137000000D03*
%TO.P,J5,5,Pin_5_5*%
%TO.N,/HAL_06*%
X167160000Y-137000000D03*
%TO.P,J5,6,Pin_6_6*%
%TO.N,GND*%
X169700000Y-137000000D03*
%TO.P,J5,7,Pin_7_7*%
%TO.N,+5V*%
X172240000Y-137000000D03*
%TD*%
D12*
%TO.P,R29,1*%
%TO.N,Net-(D8-K)*%
X112000000Y-108920000D03*
%TO.P,R29,2*%
%TO.N,Net-(D9-K)*%
X112000000Y-119080000D03*
%TD*%
%TO.P,R2,1*%
%TO.N,+5V*%
X185000000Y-68920000D03*
%TO.P,R2,2*%
%TO.N,Net-(D2-K)*%
X185000000Y-79080000D03*
%TD*%
%TO.P,R34,1*%
%TO.N,GND*%
X128500000Y-71300000D03*
%TO.P,R34,2*%
X128500000Y-81460000D03*
%TD*%
M02*
